<mxfile host="app.diagrams.net" modified="2024-06-14T13:09:16.582Z" agent="Mozilla/5.0 (Windows NT 10.0; Win64; x64) AppleWebKit/537.36 (KHTML, like Gecko) Chrome/125.0.0.0 Safari/537.36 Edg/125.0.0.0" etag="UtgdqnI2bwMOJcSsCKex" version="24.4.13" type="device">
  <diagram name="第 1 页" id="fKOqjx0wXA1uqgqvf_uR">
    <mxGraphModel dx="1354" dy="884" grid="1" gridSize="10" guides="1" tooltips="1" connect="1" arrows="1" fold="1" page="1" pageScale="1" pageWidth="3300" pageHeight="4681" math="0" shadow="0">
      <root>
        <mxCell id="0" />
        <mxCell id="1" parent="0" />
        <mxCell id="JM9ZpzB30W4Wpag4Mlv9-17" style="edgeStyle=orthogonalEdgeStyle;rounded=0;orthogonalLoop=1;jettySize=auto;html=1;exitX=1;exitY=0.5;exitDx=0;exitDy=0;" edge="1" parent="1" source="JM9ZpzB30W4Wpag4Mlv9-1" target="JM9ZpzB30W4Wpag4Mlv9-2">
          <mxGeometry relative="1" as="geometry" />
        </mxCell>
        <mxCell id="JM9ZpzB30W4Wpag4Mlv9-18" style="edgeStyle=orthogonalEdgeStyle;rounded=0;orthogonalLoop=1;jettySize=auto;html=1;exitX=0.5;exitY=1;exitDx=0;exitDy=0;entryX=0.5;entryY=0;entryDx=0;entryDy=0;" edge="1" parent="1" source="JM9ZpzB30W4Wpag4Mlv9-1" target="JM9ZpzB30W4Wpag4Mlv9-3">
          <mxGeometry relative="1" as="geometry" />
        </mxCell>
        <mxCell id="JM9ZpzB30W4Wpag4Mlv9-1" value="136" style="rhombus;whiteSpace=wrap;html=1;" vertex="1" parent="1">
          <mxGeometry x="370" y="110" width="80" height="80" as="geometry" />
        </mxCell>
        <mxCell id="JM9ZpzB30W4Wpag4Mlv9-2" value="137" style="rounded=0;whiteSpace=wrap;html=1;" vertex="1" parent="1">
          <mxGeometry x="520" y="120" width="120" height="60" as="geometry" />
        </mxCell>
        <mxCell id="JM9ZpzB30W4Wpag4Mlv9-19" style="edgeStyle=orthogonalEdgeStyle;rounded=0;orthogonalLoop=1;jettySize=auto;html=1;exitX=1;exitY=0.5;exitDx=0;exitDy=0;" edge="1" parent="1" source="JM9ZpzB30W4Wpag4Mlv9-3" target="JM9ZpzB30W4Wpag4Mlv9-4">
          <mxGeometry relative="1" as="geometry" />
        </mxCell>
        <mxCell id="JM9ZpzB30W4Wpag4Mlv9-20" style="edgeStyle=orthogonalEdgeStyle;rounded=0;orthogonalLoop=1;jettySize=auto;html=1;exitX=0.5;exitY=1;exitDx=0;exitDy=0;entryX=0.5;entryY=0;entryDx=0;entryDy=0;" edge="1" parent="1" source="JM9ZpzB30W4Wpag4Mlv9-3" target="JM9ZpzB30W4Wpag4Mlv9-5">
          <mxGeometry relative="1" as="geometry" />
        </mxCell>
        <mxCell id="JM9ZpzB30W4Wpag4Mlv9-3" value="139" style="rhombus;whiteSpace=wrap;html=1;" vertex="1" parent="1">
          <mxGeometry x="370" y="230" width="80" height="80" as="geometry" />
        </mxCell>
        <mxCell id="JM9ZpzB30W4Wpag4Mlv9-4" value="140" style="rounded=0;whiteSpace=wrap;html=1;" vertex="1" parent="1">
          <mxGeometry x="520" y="240" width="120" height="60" as="geometry" />
        </mxCell>
        <mxCell id="JM9ZpzB30W4Wpag4Mlv9-21" style="edgeStyle=orthogonalEdgeStyle;rounded=0;orthogonalLoop=1;jettySize=auto;html=1;exitX=1;exitY=0.5;exitDx=0;exitDy=0;entryX=0;entryY=0.5;entryDx=0;entryDy=0;" edge="1" parent="1" source="JM9ZpzB30W4Wpag4Mlv9-5" target="JM9ZpzB30W4Wpag4Mlv9-6">
          <mxGeometry relative="1" as="geometry" />
        </mxCell>
        <mxCell id="JM9ZpzB30W4Wpag4Mlv9-22" style="edgeStyle=orthogonalEdgeStyle;rounded=0;orthogonalLoop=1;jettySize=auto;html=1;exitX=0.5;exitY=1;exitDx=0;exitDy=0;entryX=0.5;entryY=0;entryDx=0;entryDy=0;" edge="1" parent="1" source="JM9ZpzB30W4Wpag4Mlv9-5" target="JM9ZpzB30W4Wpag4Mlv9-8">
          <mxGeometry relative="1" as="geometry" />
        </mxCell>
        <mxCell id="JM9ZpzB30W4Wpag4Mlv9-5" value="142" style="rhombus;whiteSpace=wrap;html=1;" vertex="1" parent="1">
          <mxGeometry x="370" y="340" width="80" height="80" as="geometry" />
        </mxCell>
        <mxCell id="JM9ZpzB30W4Wpag4Mlv9-6" value="143" style="rounded=0;whiteSpace=wrap;html=1;" vertex="1" parent="1">
          <mxGeometry x="520" y="350" width="120" height="60" as="geometry" />
        </mxCell>
        <mxCell id="JM9ZpzB30W4Wpag4Mlv9-26" style="edgeStyle=orthogonalEdgeStyle;rounded=0;orthogonalLoop=1;jettySize=auto;html=1;exitX=1;exitY=0.5;exitDx=0;exitDy=0;entryX=0.5;entryY=0;entryDx=0;entryDy=0;" edge="1" parent="1" source="JM9ZpzB30W4Wpag4Mlv9-7" target="JM9ZpzB30W4Wpag4Mlv9-13">
          <mxGeometry relative="1" as="geometry" />
        </mxCell>
        <mxCell id="JM9ZpzB30W4Wpag4Mlv9-31" style="edgeStyle=orthogonalEdgeStyle;rounded=0;orthogonalLoop=1;jettySize=auto;html=1;exitX=0.5;exitY=1;exitDx=0;exitDy=0;entryX=0.5;entryY=0;entryDx=0;entryDy=0;" edge="1" parent="1" source="JM9ZpzB30W4Wpag4Mlv9-7" target="JM9ZpzB30W4Wpag4Mlv9-11">
          <mxGeometry relative="1" as="geometry" />
        </mxCell>
        <mxCell id="JM9ZpzB30W4Wpag4Mlv9-7" value="148" style="rhombus;whiteSpace=wrap;html=1;" vertex="1" parent="1">
          <mxGeometry x="370" y="620" width="80" height="80" as="geometry" />
        </mxCell>
        <mxCell id="JM9ZpzB30W4Wpag4Mlv9-23" style="edgeStyle=orthogonalEdgeStyle;rounded=0;orthogonalLoop=1;jettySize=auto;html=1;exitX=0.5;exitY=1;exitDx=0;exitDy=0;entryX=0.5;entryY=0;entryDx=0;entryDy=0;" edge="1" parent="1" source="JM9ZpzB30W4Wpag4Mlv9-8" target="JM9ZpzB30W4Wpag4Mlv9-10">
          <mxGeometry relative="1" as="geometry" />
        </mxCell>
        <mxCell id="JM9ZpzB30W4Wpag4Mlv9-8" value="146" style="rounded=0;whiteSpace=wrap;html=1;" vertex="1" parent="1">
          <mxGeometry x="350" y="460" width="120" height="60" as="geometry" />
        </mxCell>
        <mxCell id="JM9ZpzB30W4Wpag4Mlv9-24" style="edgeStyle=orthogonalEdgeStyle;rounded=0;orthogonalLoop=1;jettySize=auto;html=1;exitX=0.5;exitY=1;exitDx=0;exitDy=0;entryX=0.5;entryY=0;entryDx=0;entryDy=0;" edge="1" parent="1" source="JM9ZpzB30W4Wpag4Mlv9-10" target="JM9ZpzB30W4Wpag4Mlv9-7">
          <mxGeometry relative="1" as="geometry" />
        </mxCell>
        <mxCell id="JM9ZpzB30W4Wpag4Mlv9-10" value="147" style="rounded=0;whiteSpace=wrap;html=1;" vertex="1" parent="1">
          <mxGeometry x="350" y="540" width="120" height="60" as="geometry" />
        </mxCell>
        <mxCell id="JM9ZpzB30W4Wpag4Mlv9-29" style="edgeStyle=orthogonalEdgeStyle;rounded=0;orthogonalLoop=1;jettySize=auto;html=1;exitX=0.5;exitY=1;exitDx=0;exitDy=0;entryX=0.5;entryY=0;entryDx=0;entryDy=0;" edge="1" parent="1" source="JM9ZpzB30W4Wpag4Mlv9-11" target="JM9ZpzB30W4Wpag4Mlv9-12">
          <mxGeometry relative="1" as="geometry" />
        </mxCell>
        <mxCell id="JM9ZpzB30W4Wpag4Mlv9-32" style="edgeStyle=orthogonalEdgeStyle;rounded=0;orthogonalLoop=1;jettySize=auto;html=1;exitX=0;exitY=0.5;exitDx=0;exitDy=0;entryX=0;entryY=0.5;entryDx=0;entryDy=0;" edge="1" parent="1" source="JM9ZpzB30W4Wpag4Mlv9-11" target="JM9ZpzB30W4Wpag4Mlv9-7">
          <mxGeometry relative="1" as="geometry">
            <Array as="points">
              <mxPoint x="230" y="760" />
              <mxPoint x="230" y="660" />
            </Array>
          </mxGeometry>
        </mxCell>
        <mxCell id="JM9ZpzB30W4Wpag4Mlv9-11" value="150" style="rhombus;whiteSpace=wrap;html=1;" vertex="1" parent="1">
          <mxGeometry x="370" y="720" width="80" height="80" as="geometry" />
        </mxCell>
        <mxCell id="JM9ZpzB30W4Wpag4Mlv9-34" style="edgeStyle=orthogonalEdgeStyle;rounded=0;orthogonalLoop=1;jettySize=auto;html=1;exitX=0;exitY=0.5;exitDx=0;exitDy=0;" edge="1" parent="1" source="JM9ZpzB30W4Wpag4Mlv9-12">
          <mxGeometry relative="1" as="geometry">
            <mxPoint x="230" y="760" as="targetPoint" />
          </mxGeometry>
        </mxCell>
        <mxCell id="JM9ZpzB30W4Wpag4Mlv9-12" value="151" style="rounded=0;whiteSpace=wrap;html=1;" vertex="1" parent="1">
          <mxGeometry x="350" y="830" width="120" height="60" as="geometry" />
        </mxCell>
        <mxCell id="JM9ZpzB30W4Wpag4Mlv9-27" style="edgeStyle=orthogonalEdgeStyle;rounded=0;orthogonalLoop=1;jettySize=auto;html=1;exitX=1;exitY=0.5;exitDx=0;exitDy=0;entryX=0;entryY=0.5;entryDx=0;entryDy=0;" edge="1" parent="1" source="JM9ZpzB30W4Wpag4Mlv9-13" target="JM9ZpzB30W4Wpag4Mlv9-15">
          <mxGeometry relative="1" as="geometry" />
        </mxCell>
        <mxCell id="JM9ZpzB30W4Wpag4Mlv9-28" style="edgeStyle=orthogonalEdgeStyle;rounded=0;orthogonalLoop=1;jettySize=auto;html=1;exitX=0.5;exitY=1;exitDx=0;exitDy=0;entryX=0.5;entryY=0;entryDx=0;entryDy=0;" edge="1" parent="1" source="JM9ZpzB30W4Wpag4Mlv9-13" target="JM9ZpzB30W4Wpag4Mlv9-14">
          <mxGeometry relative="1" as="geometry" />
        </mxCell>
        <mxCell id="JM9ZpzB30W4Wpag4Mlv9-13" value="155" style="rhombus;whiteSpace=wrap;html=1;" vertex="1" parent="1">
          <mxGeometry x="550" y="720" width="80" height="80" as="geometry" />
        </mxCell>
        <mxCell id="JM9ZpzB30W4Wpag4Mlv9-14" value="159" style="rounded=0;whiteSpace=wrap;html=1;" vertex="1" parent="1">
          <mxGeometry x="530" y="830" width="120" height="60" as="geometry" />
        </mxCell>
        <mxCell id="JM9ZpzB30W4Wpag4Mlv9-15" value="156" style="rounded=0;whiteSpace=wrap;html=1;" vertex="1" parent="1">
          <mxGeometry x="690" y="730" width="120" height="60" as="geometry" />
        </mxCell>
        <mxCell id="JM9ZpzB30W4Wpag4Mlv9-16" value="" style="endArrow=classic;html=1;rounded=0;entryX=0.5;entryY=0;entryDx=0;entryDy=0;" edge="1" parent="1" target="JM9ZpzB30W4Wpag4Mlv9-1">
          <mxGeometry width="50" height="50" relative="1" as="geometry">
            <mxPoint x="410" y="30" as="sourcePoint" />
            <mxPoint x="510" y="200" as="targetPoint" />
          </mxGeometry>
        </mxCell>
        <mxCell id="JM9ZpzB30W4Wpag4Mlv9-35" value="T" style="text;html=1;align=center;verticalAlign=middle;resizable=0;points=[];autosize=1;strokeColor=none;fillColor=none;" vertex="1" parent="1">
          <mxGeometry x="455" y="118" width="30" height="30" as="geometry" />
        </mxCell>
        <mxCell id="JM9ZpzB30W4Wpag4Mlv9-36" value="F" style="text;html=1;align=center;verticalAlign=middle;resizable=0;points=[];autosize=1;strokeColor=none;fillColor=none;" vertex="1" parent="1">
          <mxGeometry x="405" y="188" width="30" height="30" as="geometry" />
        </mxCell>
        <mxCell id="JM9ZpzB30W4Wpag4Mlv9-37" value="T" style="text;html=1;align=center;verticalAlign=middle;resizable=0;points=[];autosize=1;strokeColor=none;fillColor=none;" vertex="1" parent="1">
          <mxGeometry x="455" y="240" width="30" height="30" as="geometry" />
        </mxCell>
        <mxCell id="JM9ZpzB30W4Wpag4Mlv9-38" value="F" style="text;html=1;align=center;verticalAlign=middle;resizable=0;points=[];autosize=1;strokeColor=none;fillColor=none;" vertex="1" parent="1">
          <mxGeometry x="405" y="308" width="30" height="30" as="geometry" />
        </mxCell>
        <mxCell id="JM9ZpzB30W4Wpag4Mlv9-39" value="T" style="text;html=1;align=center;verticalAlign=middle;resizable=0;points=[];autosize=1;strokeColor=none;fillColor=none;" vertex="1" parent="1">
          <mxGeometry x="455" y="358" width="30" height="30" as="geometry" />
        </mxCell>
        <mxCell id="JM9ZpzB30W4Wpag4Mlv9-40" value="F" style="text;html=1;align=center;verticalAlign=middle;resizable=0;points=[];autosize=1;strokeColor=none;fillColor=none;" vertex="1" parent="1">
          <mxGeometry x="415" y="418" width="30" height="30" as="geometry" />
        </mxCell>
        <mxCell id="JM9ZpzB30W4Wpag4Mlv9-41" value="F" style="text;html=1;align=center;verticalAlign=middle;resizable=0;points=[];autosize=1;strokeColor=none;fillColor=none;" vertex="1" parent="1">
          <mxGeometry x="495" y="628" width="30" height="30" as="geometry" />
        </mxCell>
        <mxCell id="JM9ZpzB30W4Wpag4Mlv9-42" value="T" style="text;html=1;align=center;verticalAlign=middle;resizable=0;points=[];autosize=1;strokeColor=none;fillColor=none;" vertex="1" parent="1">
          <mxGeometry x="405" y="690" width="30" height="30" as="geometry" />
        </mxCell>
        <mxCell id="JM9ZpzB30W4Wpag4Mlv9-43" value="T" style="text;html=1;align=center;verticalAlign=middle;resizable=0;points=[];autosize=1;strokeColor=none;fillColor=none;" vertex="1" parent="1">
          <mxGeometry x="415" y="798" width="30" height="30" as="geometry" />
        </mxCell>
        <mxCell id="JM9ZpzB30W4Wpag4Mlv9-44" value="F" style="text;html=1;align=center;verticalAlign=middle;resizable=0;points=[];autosize=1;strokeColor=none;fillColor=none;" vertex="1" parent="1">
          <mxGeometry x="295" y="730" width="30" height="30" as="geometry" />
        </mxCell>
        <mxCell id="JM9ZpzB30W4Wpag4Mlv9-45" value="T" style="text;html=1;align=center;verticalAlign=middle;resizable=0;points=[];autosize=1;strokeColor=none;fillColor=none;" vertex="1" parent="1">
          <mxGeometry x="640" y="730" width="30" height="30" as="geometry" />
        </mxCell>
        <mxCell id="JM9ZpzB30W4Wpag4Mlv9-46" value="F" style="text;html=1;align=center;verticalAlign=middle;resizable=0;points=[];autosize=1;strokeColor=none;fillColor=none;" vertex="1" parent="1">
          <mxGeometry x="595" y="798" width="30" height="30" as="geometry" />
        </mxCell>
        <mxCell id="JM9ZpzB30W4Wpag4Mlv9-61" style="edgeStyle=orthogonalEdgeStyle;rounded=0;orthogonalLoop=1;jettySize=auto;html=1;exitX=0;exitY=0.5;exitDx=0;exitDy=0;entryX=0.5;entryY=0;entryDx=0;entryDy=0;" edge="1" parent="1" source="JM9ZpzB30W4Wpag4Mlv9-47" target="JM9ZpzB30W4Wpag4Mlv9-48">
          <mxGeometry relative="1" as="geometry" />
        </mxCell>
        <mxCell id="JM9ZpzB30W4Wpag4Mlv9-62" style="edgeStyle=orthogonalEdgeStyle;rounded=0;orthogonalLoop=1;jettySize=auto;html=1;exitX=1;exitY=0.5;exitDx=0;exitDy=0;entryX=0.5;entryY=0;entryDx=0;entryDy=0;" edge="1" parent="1" source="JM9ZpzB30W4Wpag4Mlv9-47" target="JM9ZpzB30W4Wpag4Mlv9-49">
          <mxGeometry relative="1" as="geometry" />
        </mxCell>
        <mxCell id="JM9ZpzB30W4Wpag4Mlv9-47" value="136" style="ellipse;whiteSpace=wrap;html=1;aspect=fixed;" vertex="1" parent="1">
          <mxGeometry x="1090" y="150" width="60" height="60" as="geometry" />
        </mxCell>
        <mxCell id="JM9ZpzB30W4Wpag4Mlv9-48" value="137" style="ellipse;whiteSpace=wrap;html=1;aspect=fixed;" vertex="1" parent="1">
          <mxGeometry x="990" y="230" width="60" height="60" as="geometry" />
        </mxCell>
        <mxCell id="JM9ZpzB30W4Wpag4Mlv9-63" style="edgeStyle=orthogonalEdgeStyle;rounded=0;orthogonalLoop=1;jettySize=auto;html=1;exitX=0;exitY=0.5;exitDx=0;exitDy=0;entryX=0.5;entryY=0;entryDx=0;entryDy=0;" edge="1" parent="1" source="JM9ZpzB30W4Wpag4Mlv9-49" target="JM9ZpzB30W4Wpag4Mlv9-50">
          <mxGeometry relative="1" as="geometry" />
        </mxCell>
        <mxCell id="JM9ZpzB30W4Wpag4Mlv9-64" style="edgeStyle=orthogonalEdgeStyle;rounded=0;orthogonalLoop=1;jettySize=auto;html=1;exitX=1;exitY=0.5;exitDx=0;exitDy=0;entryX=0.5;entryY=0;entryDx=0;entryDy=0;" edge="1" parent="1" source="JM9ZpzB30W4Wpag4Mlv9-49" target="JM9ZpzB30W4Wpag4Mlv9-51">
          <mxGeometry relative="1" as="geometry" />
        </mxCell>
        <mxCell id="JM9ZpzB30W4Wpag4Mlv9-49" value="139" style="ellipse;whiteSpace=wrap;html=1;aspect=fixed;" vertex="1" parent="1">
          <mxGeometry x="1180" y="230" width="60" height="60" as="geometry" />
        </mxCell>
        <mxCell id="JM9ZpzB30W4Wpag4Mlv9-50" value="140" style="ellipse;whiteSpace=wrap;html=1;aspect=fixed;" vertex="1" parent="1">
          <mxGeometry x="1110" y="320" width="60" height="60" as="geometry" />
        </mxCell>
        <mxCell id="JM9ZpzB30W4Wpag4Mlv9-65" style="edgeStyle=orthogonalEdgeStyle;rounded=0;orthogonalLoop=1;jettySize=auto;html=1;exitX=0;exitY=0.5;exitDx=0;exitDy=0;entryX=0.5;entryY=0;entryDx=0;entryDy=0;" edge="1" parent="1" source="JM9ZpzB30W4Wpag4Mlv9-51" target="JM9ZpzB30W4Wpag4Mlv9-52">
          <mxGeometry relative="1" as="geometry" />
        </mxCell>
        <mxCell id="JM9ZpzB30W4Wpag4Mlv9-66" style="edgeStyle=orthogonalEdgeStyle;rounded=0;orthogonalLoop=1;jettySize=auto;html=1;exitX=1;exitY=0.5;exitDx=0;exitDy=0;entryX=0.5;entryY=0;entryDx=0;entryDy=0;" edge="1" parent="1" source="JM9ZpzB30W4Wpag4Mlv9-51" target="JM9ZpzB30W4Wpag4Mlv9-53">
          <mxGeometry relative="1" as="geometry" />
        </mxCell>
        <mxCell id="JM9ZpzB30W4Wpag4Mlv9-51" value="142" style="ellipse;whiteSpace=wrap;html=1;aspect=fixed;" vertex="1" parent="1">
          <mxGeometry x="1260" y="320" width="60" height="60" as="geometry" />
        </mxCell>
        <mxCell id="JM9ZpzB30W4Wpag4Mlv9-52" value="143" style="ellipse;whiteSpace=wrap;html=1;aspect=fixed;" vertex="1" parent="1">
          <mxGeometry x="1180" y="410" width="60" height="60" as="geometry" />
        </mxCell>
        <mxCell id="JM9ZpzB30W4Wpag4Mlv9-69" style="edgeStyle=orthogonalEdgeStyle;rounded=0;orthogonalLoop=1;jettySize=auto;html=1;exitX=0.5;exitY=1;exitDx=0;exitDy=0;entryX=0.5;entryY=0;entryDx=0;entryDy=0;" edge="1" parent="1" source="JM9ZpzB30W4Wpag4Mlv9-53" target="JM9ZpzB30W4Wpag4Mlv9-54">
          <mxGeometry relative="1" as="geometry" />
        </mxCell>
        <mxCell id="JM9ZpzB30W4Wpag4Mlv9-72" style="edgeStyle=orthogonalEdgeStyle;rounded=0;orthogonalLoop=1;jettySize=auto;html=1;exitX=1;exitY=0.5;exitDx=0;exitDy=0;entryX=0.5;entryY=0;entryDx=0;entryDy=0;" edge="1" parent="1" source="JM9ZpzB30W4Wpag4Mlv9-53" target="JM9ZpzB30W4Wpag4Mlv9-55">
          <mxGeometry relative="1" as="geometry" />
        </mxCell>
        <mxCell id="JM9ZpzB30W4Wpag4Mlv9-53" value="146&lt;div&gt;147&lt;/div&gt;&lt;div&gt;&lt;span style=&quot;background-color: initial;&quot;&gt;148&lt;/span&gt;&lt;/div&gt;" style="ellipse;whiteSpace=wrap;html=1;aspect=fixed;" vertex="1" parent="1">
          <mxGeometry x="1350" y="410" width="60" height="60" as="geometry" />
        </mxCell>
        <mxCell id="JM9ZpzB30W4Wpag4Mlv9-70" style="edgeStyle=orthogonalEdgeStyle;rounded=0;orthogonalLoop=1;jettySize=auto;html=1;exitX=0;exitY=0.5;exitDx=0;exitDy=0;entryX=0;entryY=0.5;entryDx=0;entryDy=0;" edge="1" parent="1" source="JM9ZpzB30W4Wpag4Mlv9-54" target="JM9ZpzB30W4Wpag4Mlv9-53">
          <mxGeometry relative="1" as="geometry" />
        </mxCell>
        <mxCell id="JM9ZpzB30W4Wpag4Mlv9-76" style="edgeStyle=orthogonalEdgeStyle;rounded=0;orthogonalLoop=1;jettySize=auto;html=1;exitX=0.5;exitY=1;exitDx=0;exitDy=0;entryX=0.5;entryY=0;entryDx=0;entryDy=0;" edge="1" parent="1" source="JM9ZpzB30W4Wpag4Mlv9-54" target="JM9ZpzB30W4Wpag4Mlv9-59">
          <mxGeometry relative="1" as="geometry" />
        </mxCell>
        <mxCell id="JM9ZpzB30W4Wpag4Mlv9-54" value="150" style="ellipse;whiteSpace=wrap;html=1;aspect=fixed;" vertex="1" parent="1">
          <mxGeometry x="1270" y="510" width="60" height="60" as="geometry" />
        </mxCell>
        <mxCell id="JM9ZpzB30W4Wpag4Mlv9-73" style="edgeStyle=orthogonalEdgeStyle;rounded=0;orthogonalLoop=1;jettySize=auto;html=1;exitX=0;exitY=0.5;exitDx=0;exitDy=0;entryX=0.5;entryY=0;entryDx=0;entryDy=0;" edge="1" parent="1" source="JM9ZpzB30W4Wpag4Mlv9-55" target="JM9ZpzB30W4Wpag4Mlv9-56">
          <mxGeometry relative="1" as="geometry" />
        </mxCell>
        <mxCell id="JM9ZpzB30W4Wpag4Mlv9-74" style="edgeStyle=orthogonalEdgeStyle;rounded=0;orthogonalLoop=1;jettySize=auto;html=1;exitX=1;exitY=0.5;exitDx=0;exitDy=0;entryX=0.5;entryY=0;entryDx=0;entryDy=0;" edge="1" parent="1" source="JM9ZpzB30W4Wpag4Mlv9-55" target="JM9ZpzB30W4Wpag4Mlv9-57">
          <mxGeometry relative="1" as="geometry" />
        </mxCell>
        <mxCell id="JM9ZpzB30W4Wpag4Mlv9-55" value="155" style="ellipse;whiteSpace=wrap;html=1;aspect=fixed;" vertex="1" parent="1">
          <mxGeometry x="1460" y="510" width="60" height="60" as="geometry" />
        </mxCell>
        <mxCell id="JM9ZpzB30W4Wpag4Mlv9-56" value="159" style="ellipse;whiteSpace=wrap;html=1;aspect=fixed;" vertex="1" parent="1">
          <mxGeometry x="1410" y="613" width="60" height="60" as="geometry" />
        </mxCell>
        <mxCell id="JM9ZpzB30W4Wpag4Mlv9-57" value="156" style="ellipse;whiteSpace=wrap;html=1;aspect=fixed;" vertex="1" parent="1">
          <mxGeometry x="1540" y="613" width="60" height="60" as="geometry" />
        </mxCell>
        <mxCell id="JM9ZpzB30W4Wpag4Mlv9-71" style="edgeStyle=orthogonalEdgeStyle;rounded=0;orthogonalLoop=1;jettySize=auto;html=1;exitX=0;exitY=0.5;exitDx=0;exitDy=0;" edge="1" parent="1" source="JM9ZpzB30W4Wpag4Mlv9-59">
          <mxGeometry relative="1" as="geometry">
            <mxPoint x="1250" y="490" as="targetPoint" />
          </mxGeometry>
        </mxCell>
        <mxCell id="JM9ZpzB30W4Wpag4Mlv9-59" value="151" style="ellipse;whiteSpace=wrap;html=1;aspect=fixed;" vertex="1" parent="1">
          <mxGeometry x="1270" y="613" width="60" height="60" as="geometry" />
        </mxCell>
      </root>
    </mxGraphModel>
  </diagram>
</mxfile>
